<svg xmlns="http://www.w3.org/2000/svg" viewBox="0 0 32 32" fill="currentColor">
  <!-- Stylized "C" for COBOL with punch-card holes -->
  <!-- Outer C shape -->
  <path d="M16 2C8.268 2 2 8.268 2 16s6.268 14 14 14c4.5 0 8.5-2.1 11.1-5.4l-2.6-2.6C22.7 24.5 19.5 26 16 26 10.477 26 6 21.523 6 16S10.477 6 16 6c3.5 0 6.7 1.5 8.5 3.9l2.6-2.6C24.5 4.1 20.5 2 16 2z"/>
  <!-- Punch card holes (3 small rectangles in the C gap area) -->
  <rect x="21" y="14" width="2.5" height="1.5" rx="0.3"/>
  <rect x="24.5" y="14" width="2.5" height="1.5" rx="0.3"/>
  <rect x="28" y="14" width="2.5" height="1.5" rx="0.3"/>
</svg>
