<svg xmlns="http://www.w3.org/2000/svg" viewBox="0 0 100 75" fill="currentColor">
  <!-- Triceratops silhouette, facing right -->
  <!-- Body + tail + frill outline -->
  <path d="
    M 18 38
    C 10 36, 4 38, 4 44
    C 4 50, 12 50, 18 46
    C 22 44, 26 44, 30 44
    L 30 60
    C 28 66, 32 70, 36 70
    L 40 70
    C 42 66, 40 60, 40 56
    L 40 50
    L 56 50
    L 56 56
    C 56 60, 54 66, 56 70
    L 60 70
    C 64 70, 66 66, 64 60
    L 64 48
    C 70 46, 76 44, 82 42
    C 88 40, 92 40, 96 38
    C 96 34, 90 34, 86 34
    L 84 30
    C 90 28, 94 26, 92 22
    C 88 22, 84 24, 82 26
    L 80 22
    L 78 14
    L 74 24
    L 72 8
    L 68 22
    C 62 18, 56 22, 50 24
    C 42 26, 34 26, 28 28
    C 22 30, 18 32, 18 38
    Z
  "/>
  <!-- Horn left (further back) -->
  <path d="M 70 22 L 86 6 L 80 22 Z"/>
  <!-- Horn right (closer to viewer) -->
  <path d="M 76 22 L 92 8 L 86 24 Z"/>
  <!-- Nose horn (small, on snout) -->
  <path d="M 84 32 L 88 26 L 90 32 Z"/>
</svg>
