<svg xmlns="http://www.w3.org/2000/svg" viewBox="0 0 1024 1024" role="img" aria-label="Greenbar printer output icon">
  <defs>
    <filter id="shadow" x="-25%" y="-25%" width="150%" height="150%">
      <feDropShadow dx="0" dy="16" stdDeviation="22" flood-color="#000" flood-opacity=".45"/>
    </filter>

    <linearGradient id="paper" x1="0" y1="0" x2="1" y2="1">
      <stop offset="0" stop-color="#f7fff4"/>
      <stop offset=".55" stop-color="#eafbe8"/>
      <stop offset="1" stop-color="#f4fff1"/>
    </linearGradient>

    <linearGradient id="ink" x1="0" y1="0" x2="1" y2="1">
      <stop offset="0" stop-color="#0c4e10"/>
      <stop offset="1" stop-color="#0a6417"/>
    </linearGradient>

    <clipPath id="receipt">
      <path d="
        M174 224
        C196 204 216 252 260 244
        C304 236 305 207 350 225
        C394 243 396 251 440 242
        C484 233 486 208 530 225
        C574 242 575 250 618 242
        C662 234 665 207 708 225
        C752 243 754 251 796 242
        C839 233 839 205 878 225
        C904 238 917 261 930 239
        Q936 229 936 244

        L936 780
        Q936 795 921 791
        C901 786 891 773 860 779
        C817 787 815 813 772 795
        C729 777 727 772 684 781
        C641 790 638 813 595 795
        C552 777 550 772 507 781
        C464 790 461 813 418 795
        C375 777 373 772 330 781
        C287 790 284 813 241 795
        C198 777 196 772 174 784
        Q160 792 160 776

        L160 244
        Q160 229 174 224
        Z"/>
    </clipPath>
  </defs>

  <g filter="url(#shadow)">
    <g clip-path="url(#receipt)">
      <rect x="160" y="210" width="776" height="600" fill="url(#paper)"/>

      <rect x="160" y="336" width="776" height="78" fill="#c9efc5" opacity=".85"/>
      <rect x="160" y="488" width="776" height="78" fill="#c9efc5" opacity=".85"/>
      <rect x="160" y="640" width="776" height="78" fill="#c9efc5" opacity=".85"/>

      <g fill="url(#ink)">
        <!-- row 1 -->
        <rect x="198" y="284" width="38" height="18"/>
        <rect x="260" y="284" width="38" height="18"/>
        <rect x="346" y="284" width="296" height="18"/>
        <rect x="696" y="284" width="48" height="18"/>

        <!-- row 2 -->
        <rect x="198" y="360" width="38" height="18"/>
        <rect x="260" y="360" width="38" height="18"/>
        <rect x="346" y="360" width="168" height="18"/>
        <rect x="696" y="360" width="48" height="18"/>
        <rect x="762" y="365" width="12" height="12"/>
        <rect x="784" y="365" width="12" height="12"/>
        <rect x="806" y="365" width="12" height="12"/>
        <rect x="828" y="365" width="12" height="12"/>
        <rect x="850" y="365" width="12" height="12"/>
        <rect x="872" y="365" width="12" height="12"/>

        <!-- row 3 -->
        <rect x="198" y="436" width="38" height="18"/>
        <rect x="260" y="436" width="38" height="18"/>
        <rect x="346" y="436" width="278" height="18"/>
        <rect x="696" y="436" width="48" height="18"/>
        <rect x="762" y="441" width="12" height="12"/>
        <rect x="784" y="441" width="12" height="12"/>
        <rect x="806" y="441" width="12" height="12"/>
        <rect x="828" y="441" width="12" height="12"/>
        <rect x="850" y="441" width="12" height="12"/>
        <rect x="872" y="441" width="12" height="12"/>

        <!-- row 4 -->
        <rect x="198" y="512" width="38" height="18"/>
        <rect x="260" y="512" width="38" height="18"/>
        <rect x="346" y="512" width="204" height="18"/>
        <rect x="696" y="512" width="48" height="18"/>
        <rect x="762" y="517" width="12" height="12"/>
        <rect x="784" y="517" width="12" height="12"/>
        <rect x="806" y="517" width="12" height="12"/>
        <rect x="828" y="517" width="12" height="12"/>
        <rect x="850" y="517" width="12" height="12"/>
        <rect x="872" y="517" width="12" height="12"/>

        <!-- row 5 -->
        <rect x="198" y="588" width="38" height="18"/>
        <rect x="260" y="588" width="38" height="18"/>
        <rect x="346" y="588" width="316" height="18"/>
        <rect x="696" y="588" width="48" height="18"/>
        <rect x="762" y="593" width="12" height="12"/>
        <rect x="784" y="593" width="12" height="12"/>
        <rect x="806" y="593" width="12" height="12"/>
        <rect x="828" y="593" width="12" height="12"/>
        <rect x="850" y="593" width="12" height="12"/>
        <rect x="872" y="593" width="12" height="12"/>

        <!-- row 6 -->
        <rect x="198" y="664" width="38" height="18"/>
        <rect x="260" y="664" width="38" height="18"/>
        <rect x="346" y="664" width="224" height="18"/>

        <!-- row 7 -->
        <rect x="198" y="740" width="38" height="18"/>
        <rect x="260" y="740" width="38" height="18"/>
        <rect x="346" y="740" width="224" height="18"/>
        <rect x="696" y="740" width="48" height="18"/>
        <rect x="762" y="745" width="12" height="12"/>
        <rect x="784" y="745" width="12" height="12"/>
        <rect x="806" y="745" width="12" height="12"/>
        <rect x="828" y="745" width="12" height="12"/>
        <rect x="850" y="745" width="12" height="12"/>
        <rect x="872" y="745" width="12" height="12"/>
      </g>
    </g>
  </g>
</svg>
